<?xml version="1.0" encoding="iso-8859-1"?>
<!-- Generator: Adobe Illustrator 16.0.0, SVG Export Plug-In . SVG Version: 6.00 Build 0)  -->
<!DOCTYPE svg PUBLIC "-//W3C//DTD SVG 1.1//EN" "http://www.w3.org/Graphics/SVG/1.1/DTD/svg11.dtd">
<svg version="1.1" id="Capa_1" xmlns="http://www.w3.org/2000/svg" xmlns:xlink="http://www.w3.org/1999/xlink" x="0px" y="0px"
	 width="540.597px" height="540.597px" viewBox="0 0 540.597 540.597" style="enable-background:new 0 0 540.597 540.597;"
	 xml:space="preserve">
<g>
	<g>
		<path d="M156.691,540.597h227.214c20.225,0,36.682-16.467,36.682-36.691V36.682C420.587,16.457,404.13,0,383.906,0H156.691
			c-20.225,0-36.682,16.457-36.682,36.682v467.224C120.009,524.13,136.466,540.597,156.691,540.597z M134.353,36.682
			c0-12.307,10.021-22.338,22.338-22.338h227.214c12.316,0,22.338,10.031,22.338,22.338v467.224
			c0,12.326-10.021,22.348-22.338,22.348H156.691c-12.317,0-22.338-10.021-22.338-22.348V36.682z"/>
		<path d="M152.13,476.997h236.346c1.98,0,3.586-1.606,3.586-3.586V63.247c0-1.979-1.605-3.586-3.586-3.586H152.13
			c-1.979,0-3.586,1.606-3.586,3.586V473.42C148.544,475.391,150.15,476.997,152.13,476.997z M165.278,66.833h210.049
			c5.279,0,9.562,4.284,9.562,9.562v383.876c0,5.279-4.283,9.562-9.562,9.562H165.278c-5.278,0-9.562-4.283-9.562-9.562V76.395
			C155.716,71.107,159.99,66.833,165.278,66.833z"/>
		<path d="M250.136,37.81h40.334c1.98,0,3.586-1.606,3.586-3.586c0-1.979-1.605-3.586-3.586-3.586h-40.334
			c-1.979,0-3.586,1.607-3.586,3.586C246.55,36.204,248.157,37.81,250.136,37.81z"/>
		<path d="M290.958,485.201h-41.31c-8.482,0-15.386,6.904-15.386,15.377v2.467c0,8.482,6.904,15.386,15.386,15.386h41.31
			c8.482,0,15.387-6.913,15.387-15.386v-2.467C306.345,492.096,299.441,485.201,290.958,485.201z M299.173,503.045
			c0,4.533-3.691,8.214-8.215,8.214h-41.31c-4.533,0-8.214-3.69-8.214-8.214v-2.467c0-4.523,3.691-8.205,8.214-8.205h41.31
			c4.533,0,8.215,3.691,8.215,8.205V503.045z"/>
		<path d="M320.984,260.827c-4.705-2.4-5.631-6.617-2.408-10.805c7.783-10.146,12.43-22.797,12.43-36.548
			c0-33.23-27.033-60.253-60.262-60.253c-33.22,0-60.253,27.033-60.253,60.253c0,13.626,4.562,26.182,12.221,36.28
			c3.194,4.208,2.247,8.415-2.486,10.758c-10.48,5.211-23.447,15.167-27.75,33.43c-2.228,9.486-3.825,16.323-4.963,21.22
			c-0.985,4.217-0.172,8.243,2.276,11.341c2.458,3.099,6.206,4.801,10.566,4.801c0,0,2.228,0,4.982,0
			c2.754,0,4.762,4.274,4.495,9.553l-0.717,14.047c-0.21,4.228,1.243,8.215,4.093,11.217c2.859,3.003,6.77,4.657,10.997,4.657
			h92.172c4.227,0,8.139-1.654,10.998-4.657c2.85-3.002,4.312-6.989,4.092-11.217l-0.717-14.047
			c-0.268-5.278,1.75-9.553,4.494-9.553h4.982c4.352,0,8.109-1.702,10.566-4.801c2.449-3.089,3.262-7.114,2.275-11.341
			c-1.137-4.896-2.734-11.733-4.963-21.22C343.906,276.012,331.351,266.105,320.984,260.827z M270.743,159.493
			c29.758,0,53.971,24.212,53.971,53.971c0,1.186-0.059,2.362-0.145,3.528c-0.152,1.951-4.723,3.376-9.744,1.75
			c-13.436-4.341-21.189-15.338-24.947-22.51c-1.598-3.041-3.635-4.676-6.072-4.849c-2.477-0.182-4.764,1.176-6.828,3.988
			c-11.906,16.304-35.381,22.089-50.165,24.136c-5.23,0.727-9.734-0.593-9.878-2.534c-0.086-1.157-0.144-2.324-0.144-3.509
			C216.782,183.705,240.994,159.493,270.743,159.493z M228.008,225.742c15.835-2.209,40.803-8.53,54.048-26.66
			c0.209-0.297,0.4-0.526,0.572-0.717c0.346-0.383,0.957-0.354,1.225,0.038c0.135,0.201,0.277,0.45,0.439,0.746
			c4.342,8.291,13.389,21.066,29.311,25.857c5.059,1.521,8.395,5.948,6.215,10.758c-3.434,7.554-8.529,14.19-14.879,19.402
			c-9.639,7.765-21.4,12.259-34.206,12.259c-21.802,0-40.593-13.024-49.075-31.7C219.479,230.925,222.778,226.469,228.008,225.742z
			 M265.551,273.469c1.712,0.162,3.442,0.248,5.192,0.248c1.586,0,3.155-0.076,4.706-0.22c2.59-0.229,3.002,3.356,0.936,8.214
			l-2.342,5.518c-2.066,4.858-5.422,4.858-7.488,0l-2.41-5.67C262.08,276.71,262.691,273.201,265.551,273.469z M256.428,301.975
			h-18.991c-2.314,0-4.15-0.774-5.154-2.181c-1.014-1.405-1.157-3.385-0.411-5.584l6.464-19.106
			c1.692-5.001,5.489-7.659,8.645-6.282c3.155,1.377,7.516,6.12,9.582,10.978l5.689,13.378
			C264.317,298.034,261.707,301.975,256.428,301.975z M293.646,269.175c3.232-1.319,7.076,1.358,8.768,6.359l6.312,18.666
			c0.746,2.199,0.592,4.188-0.412,5.584c-1.004,1.406-2.84,2.181-5.154,2.181h-18.99c-5.279,0-7.889-3.939-5.824-8.798l5.584-13.129
			C286.005,275.189,290.414,270.494,293.646,269.175z M340.244,325.001c0,0-3.711,0-8.301,0c-4.58,0-8.08,4.274-7.812,9.553
			l1.053,20.655c0.123,2.486-0.719,4.819-2.373,6.569s-3.939,2.706-6.426,2.706h-92.172c-2.486,0-4.771-0.966-6.426-2.706
			c-1.664-1.75-2.505-4.074-2.381-6.569l1.052-20.655c0.268-5.278-3.232-9.553-7.812-9.553h-8.291c-2.391,0-4.389-0.86-5.632-2.429
			c-1.233-1.55-1.625-3.672-1.081-5.986c1.138-4.905,2.735-11.724,4.973-21.2c4.122-17.509,17.624-26.354,27.215-30.533
			c4.838-2.113,9.275-2.917,9.562-2.687c0.296,0.22-0.832,4.447-2.524,9.448l-6.961,20.578c-1.416,4.18-0.966,8.177,1.252,11.274
			c2.219,3.099,5.872,4.811,10.27,4.811h27.665h10.404h27.664c4.398,0,8.053-1.712,10.27-4.811
			c2.219-3.098,2.668-7.095,1.254-11.274l-6.779-20.043c-1.693-5.001-2.707-9.304-2.287-9.639c0.432-0.325,4.965,0.45,9.783,2.62
			c9.543,4.284,22.549,13.12,26.574,30.246c2.229,9.486,3.824,16.305,4.973,21.21c0.535,2.314,0.152,4.437-1.08,5.986
			C344.632,324.141,342.634,325.001,340.244,325.001z"/>
	</g>
</g>
<g>
</g>
<g>
</g>
<g>
</g>
<g>
</g>
<g>
</g>
<g>
</g>
<g>
</g>
<g>
</g>
<g>
</g>
<g>
</g>
<g>
</g>
<g>
</g>
<g>
</g>
<g>
</g>
<g>
</g>
</svg>
