<?xml version="1.0" encoding="iso-8859-1"?>
<!-- Generator: Adobe Illustrator 19.0.0, SVG Export Plug-In . SVG Version: 6.00 Build 0)  -->
<svg version="1.1" id="Layer_1" xmlns="http://www.w3.org/2000/svg" xmlns:xlink="http://www.w3.org/1999/xlink" x="0px" y="0px"
	 viewBox="0 0 512.001 512.001" style="enable-background:new 0 0 512.001 512.001;" xml:space="preserve">
<g>
	<g>
		<path d="M444.666,219.462c5.105-18.439,7.801-39.315,7.801-60.61c0-40.884-21.029-98.614-38.67-139.847
			C408.776,7.282,398.262,0,386.356,0c-11.906,0-22.421,7.282-27.442,19.009c-9.129,21.342-16.751,41.45-22.782,60.002
			c-6.408-2.822-13.051-5.275-19.858-7.327c-5.601-1.686-11.511,1.483-13.198,7.084c-1.688,5.601,1.483,11.511,7.084,13.199
			c9.597,2.893,18.803,6.682,27.367,11.262c0.017,0.01,0.035,0.018,0.052,0.028c21.736,11.627,40.312,28.853,55.35,51.294
			c-61.632,31.209-97.007,65.754-105.172,102.782c-5.686,25.79,1.927,51.547,22.628,76.556
			c28.902,34.921,24.67,74.836,16.029,102.176c-1.628,5.157-3.557,10.305-5.729,15.291c-0.878,2.011-3.134,2.915-5.135,2.057
			c-1.981-0.85-4.098-1.695-6.265-2.508c-0.093-0.035-0.182-0.071-0.275-0.106c-0.058-0.022-0.114-0.044-0.173-0.067
			c-12.005-4.507-30.918-9.878-52.837-9.878c-21.92,0-40.831,5.371-52.81,9.868c-0.095,0.036-0.185,0.072-0.281,0.108
			c-0.06,0.022-0.117,0.046-0.177,0.068c-2.187,0.822-4.304,1.666-6.279,2.514c-2.003,0.86-4.261-0.044-5.136-2.048
			c-2.177-4.994-4.106-10.141-5.735-15.303c-8.639-27.337-12.871-67.251,16.03-102.172c20.701-25.008,28.314-50.767,22.628-76.556
			c-8.164-37.029-43.54-71.573-105.172-102.782c15.035-22.437,33.611-39.664,55.348-51.293c0.018-0.01,0.036-0.019,0.054-0.029
			c23.255-12.435,50.684-18.74,81.528-18.74c5.85,0,10.592-4.743,10.592-10.592s-4.742-10.592-10.592-10.592
			c-29.533,0-56.417,5.294-80.126,15.723c-6.052-18.632-13.677-38.748-22.789-60.023C148.064,7.282,137.549,0,125.643,0
			s-22.421,7.282-27.441,19.008c-17.64,41.23-38.668,98.961-38.668,139.845c0,21.296,2.695,42.172,7.801,60.611
			c-18.451,65.763-14.861,127.251-14.697,129.875c0.083,1.313,0.409,2.601,0.964,3.796c1.254,2.702,31.118,65.289,113.502,94.447
			c1.447,4.132,3.047,8.237,4.798,12.254c4.815,11.022,16.7,16.879,28.058,14.561c9.143,22.358,31.077,37.604,56.042,37.604
			c24.964,0,46.897-15.245,56.041-37.603c1.654,0.338,3.321,0.503,4.974,0.503c9.694,0,18.971-5.651,23.087-15.074
			c1.75-4.013,3.35-8.119,4.797-12.25c82.385-29.159,112.245-91.741,113.499-94.442c0.554-1.195,0.881-2.483,0.964-3.796
			C459.527,346.715,463.116,285.226,444.666,219.462z M117.678,27.344c1.677-3.915,4.579-6.159,7.965-6.159
			c3.386,0,6.29,2.245,7.966,6.16c9.271,21.645,17.222,42.756,23.213,61.595c-24.818,15.038-45.652,36.644-61.988,64.377
			c-0.013,0.02-0.024,0.04-0.037,0.06c-0.022,0.037-0.046,0.073-0.068,0.11c-4.737,8.046-9.113,16.632-13.105,25.708
			c-0.596-6.668-0.908-13.474-0.908-20.346C80.718,129.753,93.844,83.049,117.678,27.344z M160.309,422.121
			c-56.689-24.913-81.83-67.297-86.626-76.226c-0.444-11.401-1.586-66.876,14.837-123.476c5.264-18.156,11.878-34.794,19.698-49.614
			c55.736,28.029,88.64,58.724,95.336,89.09c4.208,19.087-1.935,38.765-18.26,58.487
			C157.077,354.475,154.778,391.93,160.309,422.121z M256,490.815c-15.84,0-29.805-9.432-35.994-23.389
			c9.751-2.877,22.204-5.389,35.994-5.389c13.785,0,26.233,2.51,35.993,5.389C285.804,481.383,271.839,490.815,256,490.815z
			 M355.175,88.94c5.986-18.854,13.777-39.531,23.215-61.595c1.677-3.915,4.58-6.159,7.966-6.159s6.29,2.245,7.964,6.157
			c23.835,55.708,36.962,102.413,36.962,131.511c0,6.87-0.31,13.677-0.908,20.346c-3.992-9.075-8.366-17.659-13.102-25.701
			c-0.02-0.035-0.042-0.068-0.062-0.103c-0.018-0.031-0.036-0.06-0.055-0.09C400.817,125.574,379.987,103.973,355.175,88.94z
			 M438.316,345.915c-4.768,8.971-29.654,51.241-86.627,76.212c5.532-30.194,3.235-67.652-24.984-101.747
			c-16.325-19.723-22.468-39.4-18.26-58.487c6.695-30.366,39.601-61.06,95.336-89.09c7.819,14.818,14.433,31.456,19.698,49.615
			C439.913,279.057,438.76,334.571,438.316,345.915z"/>
	</g>
</g>
<g>
	<g>
		<path d="M286.616,65.306c-0.492-0.067-0.986-0.131-1.481-0.195c-5.8-0.758-11.108,3.361-11.85,9.163
			c-0.741,5.802,3.363,11.108,9.166,11.85l1.328,0.176c0.481,0.066,0.959,0.096,1.432,0.096c5.22,0,9.765-3.86,10.483-9.175
			C296.478,71.424,292.413,66.088,286.616,65.306z"/>
	</g>
</g>
<g>
	<g>
		<path d="M146.459,241.147c-17.798,0-32.278,14.474-32.278,32.266c0,5.849,4.742,10.592,10.592,10.592
			c5.85,0,10.592-4.743,10.592-10.592c0-6.111,4.976-11.082,11.093-11.082c6.111,0,11.082,4.971,11.082,11.082
			c0,5.849,4.742,10.592,10.592,10.592s10.592-4.743,10.592-10.592C178.724,255.621,164.25,241.147,146.459,241.147z"/>
	</g>
</g>
<g>
	<g>
		<path d="M256,338.796c-22.977,0-41.67,16.217-41.67,36.148c0,18.901,27.982,35.786,36.558,40.511
			c1.591,0.876,3.351,1.315,5.112,1.315s3.521-0.439,5.112-1.315c8.577-4.725,36.558-21.61,36.558-40.511
			C297.67,355.013,278.977,338.796,256,338.796z M255.992,393.87c-10.602-6.706-20.089-15.314-20.478-18.924
			c0-8.111,9.38-14.964,20.485-14.964c11.105,0,20.485,6.852,20.488,14.908C276.098,378.526,266.6,387.146,255.992,393.87z"/>
	</g>
</g>
<g>
	<g>
		<path d="M365.541,241.147c-17.792,0-32.266,14.474-32.266,32.266c0,5.849,4.742,10.592,10.592,10.592
			c5.85,0,10.592-4.743,10.592-10.592c0-6.111,4.971-11.082,11.082-11.082c6.116,0,11.093,4.971,11.093,11.082
			c0,5.849,4.742,10.592,10.592,10.592c5.85,0,10.592-4.743,10.592-10.592C397.818,255.621,383.339,241.147,365.541,241.147z"/>
	</g>
</g>
<g>
</g>
<g>
</g>
<g>
</g>
<g>
</g>
<g>
</g>
<g>
</g>
<g>
</g>
<g>
</g>
<g>
</g>
<g>
</g>
<g>
</g>
<g>
</g>
<g>
</g>
<g>
</g>
<g>
</g>
</svg>
